<svg version="1.1" id="Layer_1" xmlns="http://www.w3.org/2000/svg" xmlns:xlink="http://www.w3.org/1999/xlink" x="0px" y="0px"
	 width="100%" viewBox="0 0 300 150" enable-background="new 0 0 300 150" xml:space="preserve">
<path fill="#02042B" opacity="1.000000" stroke="none" 
	d="
M1.000000,54.000000 
	C1.000000,36.351532 1.000000,18.703068 1.000000,1.027300 
	C100.878769,1.027300 200.757538,1.027300 301.000000,1.027300 
	C301.000000,24.686319 301.000000,48.374500 300.703735,72.687332 
	C298.005676,77.069695 295.406525,80.717308 293.237457,84.604889 
	C285.378845,98.689804 277.664612,112.855240 269.527527,126.901245 
	C264.681000,126.292145 260.202820,125.772102 255.317841,125.238800 
	C252.789062,124.817375 250.621994,124.567467 248.551559,123.978096 
	C179.037552,104.190552 109.540314,84.344063 40.019844,64.579292 
	C27.058304,60.894310 14.008870,57.518497 1.000000,54.000000 
z"/>
<path fill="#000000" opacity="1.000000" stroke="none" 
	d="
M1.000000,54.468658 
	C14.008870,57.518497 27.058304,60.894310 40.019844,64.579292 
	C109.540314,84.344063 179.037552,104.190552 248.551559,123.978096 
	C250.621994,124.567467 252.789062,124.817375 255.624252,125.443787 
	C260.732605,127.373711 265.052521,129.853516 269.895874,126.990295 
	C277.664612,112.855240 285.378845,98.689804 293.237457,84.604889 
	C295.406525,80.717308 298.005676,77.069695 300.703735,73.155991 
	C301.000000,98.976036 301.000000,124.952080 301.000000,150.964050 
	C201.116135,150.964050 101.232269,150.964050 1.000000,150.964050 
	C1.000000,118.979950 1.000000,86.958633 1.000000,54.468658 
z"/>
<path fill="#02042B" opacity="1.000000" stroke="none" 
	d="
M269.527527,126.901245 
	C265.052521,129.853516 260.732605,127.373711 256.031036,125.457047 
	C260.202820,125.772102 264.681000,126.292145 269.527527,126.901245 
z"/>
</svg>